<?xml version="1.0" encoding="UTF-8" standalone="no"?>
<svg
   xmlns:dc="http://purl.org/dc/elements/1.1/"
   xmlns:cc="http://creativecommons.org/ns#"
   xmlns:rdf="http://www.w3.org/1999/02/22-rdf-syntax-ns#"
   xmlns:svg="http://www.w3.org/2000/svg"
   xmlns="http://www.w3.org/2000/svg"
   xmlns:sodipodi="http://sodipodi.sourceforge.net/DTD/sodipodi-0.dtd"
   xmlns:inkscape="http://www.inkscape.org/namespaces/inkscape"
   inkscape:version="1.0 (4035a4f, 2020-05-01)"
   sodipodi:docname="glyph-logo_May2016-white.svg"
   id="svg24"
   version="1.2"
   viewBox="0 0 503.84 503.84"
   height="503.84pt"
   width="503.84pt">
  <metadata
     id="metadata28">
    <rdf:RDF>
      <cc:Work
         rdf:about="">
        <dc:format>image/svg+xml</dc:format>
        <dc:type
           rdf:resource="http://purl.org/dc/dcmitype/StillImage" />
        <dc:title></dc:title>
      </cc:Work>
    </rdf:RDF>
  </metadata>
  <sodipodi:namedview
     inkscape:current-layer="svg24"
     inkscape:window-maximized="0"
     inkscape:window-y="23"
     inkscape:window-x="0"
     inkscape:cy="89.7624"
     inkscape:cx="-40.351176"
     inkscape:zoom="0.34469186"
     showgrid="false"
     id="namedview26"
     inkscape:window-height="988"
     inkscape:window-width="1680"
     inkscape:pageshadow="2"
     inkscape:pageopacity="0"
     guidetolerance="10"
     gridtolerance="10"
     objecttolerance="10"
     borderopacity="1"
     bordercolor="#666666"
     pagecolor="#ffffff" />
  <defs
     id="defs13">
    <clipPath
       id="clip1">
      <path
         id="path10"
         d="M 0 0 L 503.839844 0 L 503.839844 503.839844 L 0 503.839844 Z M 0 0 " />
    </clipPath>
  </defs>
  <g
     id="surface8608">
    <g
       id="g17"
       clip-rule="nonzero"
       clip-path="url(#clip1)">
      <path
         id="path15"
         d="M 251.92187,0 C 183.50391,0 174.92578,0.289062 148.05469,1.515625 121.23828,2.738281 102.92578,6.996094 86.902344,13.222656 70.335938,19.660156 56.289062,28.277344 42.28125,42.28125 28.277344,56.285156 19.664062,70.335938 13.226562,86.902344 7,102.92578 2.738281,121.23828 1.515625,148.05469 0.289062,174.92187 0,183.50391 0,251.92187 0,320.33594 0.289062,328.91406 1.515625,355.78516 2.738281,382.60156 7,400.91406 13.226562,416.9375 c 6.4375,16.56641 15.050782,30.61328 29.054688,44.62109 14.007812,14.00391 28.054688,22.61719 44.621094,29.05469 16.023436,6.23047 34.335936,10.48828 61.152346,11.71094 26.87109,1.22656 35.44922,1.51562 103.86718,1.51562 68.41797,0 76.9961,-0.28906 103.86329,-1.51562 26.8164,-1.22266 45.1289,-5.48047 61.15234,-11.71094 16.56641,-6.4375 30.61719,-15.05078 44.62109,-29.05469 14.00391,-14.00781 22.6211,-28.05468 29.0586,-44.62109 6.22656,-16.02344 10.48437,-34.33594 11.70703,-61.15234 1.22656,-26.8711 1.51562,-35.44922 1.51562,-103.86329 0,-68.41796 -0.28906,-77 -1.51562,-103.86718 -1.22266,-26.81641 -5.48047,-45.12891 -11.70703,-61.152346 C 484.17969,70.335938 475.5625,56.285156 461.55859,42.28125 447.55469,28.277344 433.50391,19.660156 416.9375,13.222656 400.91406,6.996094 382.60156,2.738281 355.78516,1.515625 328.91797,0.289062 320.33984,0 251.92187,0 Z m 0,45.390625 c 67.26563,0 75.23047,0.257813 101.79688,1.46875 24.5625,1.121094 37.89844,5.222656 46.77734,8.671875 11.75782,4.570312 20.15235,10.03125 28.96485,18.847656 8.8164,8.8125 14.27734,17.207032 18.84765,28.964844 3.44922,8.87891 7.55078,22.21484 8.67188,46.77734 1.21094,26.56641 1.46875,34.53125 1.46875,101.80078 0,67.26172 -0.25781,75.23047 -1.46875,101.79688 -1.1211,24.55859 -5.22266,37.89844 -8.67188,46.77734 -4.57031,11.75782 -10.03125,20.14844 -18.84765,28.96485 -8.8125,8.8164 -17.20703,14.27343 -28.96485,18.84375 -8.8789,3.45312 -22.21484,7.55468 -46.77734,8.67578 -26.5625,1.21094 -34.52734,1.46875 -101.79688,1.46875 -67.27343,0 -75.23828,-0.25781 -101.80078,-1.46875 -24.55859,-1.1211 -37.89843,-5.22266 -46.77734,-8.67578 -11.757812,-4.57032 -20.148438,-10.02735 -28.964844,-18.84375 -8.816406,-8.81641 -14.273437,-17.20703 -18.84375,-28.96485 -3.449218,-8.8789 -7.554687,-22.21875 -8.675781,-46.77734 -1.210937,-26.56641 -1.46875,-34.53516 -1.46875,-101.79688 0,-67.26953 0.257813,-75.23437 1.46875,-101.80078 1.121094,-24.5625 5.226563,-37.89843 8.675781,-46.77734 C 60.105469,91.585938 65.5625,83.191406 74.378906,74.378906 83.195312,65.5625 91.585938,60.101562 103.34375,55.53125 c 8.87891,-3.449219 22.21875,-7.550781 46.77734,-8.671875 26.56641,-1.210937 34.53516,-1.46875 101.80078,-1.46875"
         style="fill:#0f0c0c;fill-opacity:1;fill-rule:nonzero;stroke:none" />
    </g>
    <path
       id="path19"
       d="m 251.92187,335.89453 c -46.3789,0 -83.97656,-37.59766 -83.97656,-83.97266 0,-46.3789 37.59766,-83.97656 83.97656,-83.97656 46.375,0 83.97266,37.59766 83.97266,83.97656 0,46.375 -37.59766,83.97266 -83.97266,83.97266 z m 0,-213.33984 c -71.44921,0 -129.36718,57.91797 -129.36718,129.36718 0,71.44532 57.91797,129.36329 129.36718,129.36329 71.44532,0 129.36329,-57.91797 129.36329,-129.36329 0,-71.44921 -57.91797,-129.36718 -129.36329,-129.36718"
       style="fill:#0f0c0c;fill-opacity:1;fill-rule:nonzero;stroke:none" />
    <path
       id="path21"
       d="m 416.62891,117.44531 c 0,16.69531 -13.53516,30.23047 -30.23438,30.23047 -16.69531,0 -30.23047,-13.53516 -30.23047,-30.23047 0,-16.69922 13.53516,-30.230466 30.23047,-30.230466 16.69922,0 30.23438,13.531246 30.23438,30.230466"
       style="fill:#0f0c0c;fill-opacity:1;fill-rule:nonzero;stroke:none" />
  </g>
  <path
     transform="scale(0.74999998)"
     id="path154"
     d="m 195.84496,607.69132 c -13.62452,-0.9859 -31.67258,-3.57574 -40.10681,-5.75523 -43.90727,-11.34615 -74.539618,-42.40427 -86.120863,-87.31792 -5.750289,-22.3004 -8.152166,-74.88951 -8.135256,-178.12141 0.02837,-173.1651 4.576185,-200.77625 38.711289,-235.02759 16.48456,-16.540695 31.82153,-25.081404 57.54047,-32.042607 15.94838,-4.316661 27.3899,-5.056495 97.94727,-6.33349 43.93924,-0.795241 116.1315,-0.784966 160.42722,0.02284 88.34661,1.611135 102.91225,3.625621 129.66743,17.933505 16.23285,8.680856 37.29494,29.799082 45.11917,45.239432 13.58615,26.81103 15.67437,41.63587 18.14457,128.81469 2.76369,97.5365 -0.44867,234.92144 -6.02102,257.50407 -5.52488,22.39024 -15.18104,40.37892 -30.41922,56.66858 -23.10895,24.70353 -49.17432,34.67734 -100.72506,38.54206 -34.47562,2.5846 -239.86216,2.49016 -276.02919,-0.12693 z M 378.76035,503.98234 c 115.16403,-29.45399 167.29632,-163.65875 102.31626,-263.39396 -11.60632,-17.81406 -38.78675,-43.91463 -56.92059,-54.65914 -27.93713,-16.55307 -66.84019,-25.66203 -99.09269,-23.20205 -77.97789,5.94757 -139.92059,58.18846 -157.85131,133.12777 -6.7402,28.16988 -5.29708,66.3678 3.54091,93.72434 18.21233,56.37321 63.78847,99.04942 122.08437,114.31631 24.21802,6.34237 61.31729,6.37982 85.92305,0.0868 z m 158.14838,-312.5445 c 17.88834,-10.48326 24.37656,-32.40924 15.42362,-52.1217 -11.48296,-25.28299 -43.54538,-32.11784 -63.99572,-13.64218 -10.90563,9.85257 -15.03861,20.95737 -13.55325,36.41582 2.81338,29.2793 35.71832,44.82362 62.12535,29.34806 z"
     style="opacity:0.881481;fill:#00ff00;stroke:#ffffff;stroke-width:2.94903" />
  <path
     transform="scale(0.74999998)"
     id="path156"
     d="m 304.41,441.22531 c -9.03704,-2.99423 -20.95474,-8.23989 -26.48376,-11.65702 -15.23428,-9.4153 -33.58756,-30.80401 -42.20357,-49.18358 -6.74469,-14.38768 -7.71822,-20.12373 -7.71822,-45.47582 0,-26.01886 0.8524,-30.74733 8.26358,-45.84027 10.54442,-21.47381 31.78729,-42.71645 53.24803,-53.24744 15.07752,-7.39869 19.82348,-8.25342 45.83064,-8.25395 25.35282,-5.2e-4 31.08773,0.97275 45.47582,7.71763 47.28904,22.16825 74.40475,76.23098 62.17588,123.96494 -6.21194,24.24758 -14.32183,39.14357 -29.66375,54.48549 -27.81891,27.81892 -73.29353,39.29564 -108.92465,27.49002 z"
     style="opacity:0.881481;fill:#00ff00;stroke:#ffffff;stroke-width:3.62643" />
</svg>
